<?xml version="1.0" encoding="utf-8" ?>
<svg xmlns="http://www.w3.org/2000/svg" xmlns:xlink="http://www.w3.org/1999/xlink" width="600" height="315">
	<path fill="#FEFEFE" d="M0 0L599.487 0C599.825 0.551427 599.946 0.995312 599.972 1.62955C600.318 10.0033 600.001 18.5299 600.001 26.9166L600.005 77.3402L600.005 230.468L600 293.657C600 296.807 600.442 312.182 599.871 314.224C599.793 314.504 599.647 314.76 599.487 315L0 315L0 313.281L0 1.07325L0 0ZM0 1.07325L0 313.281C1.16654 308.631 0.415854 302.575 0.40815 297.743C0.389547 286.074 0.160948 274.361 0.297774 262.698C0.857792 214.963 0.506008 167.19 0.505405 119.449C0.504919 80.9569 0.963373 42.4122 0.500693 3.92752C0.488106 2.88062 0.535675 2.01008 0 1.07325Z"/>
	<path fill="#F49646" d="M340.359 23.6917C346.531 23.9214 359.204 27.4874 363.322 32.4798C363.483 32.6748 363.547 32.8422 363.64 33.0743L363.443 33.3822C361.908 32.1501 360.356 30.7628 358.656 29.7672C356.959 28.774 347.917 24.9218 346.399 25.0617C346.265 25.0739 346.113 25.138 345.993 25.1796C345.879 25.8122 346.069 26.1652 346.331 26.7365C345.991 27.3203 345.929 27.3057 345.335 27.5507C351.011 29.5424 355.739 32.5056 359.299 37.3943C359.196 37.9217 359.178 38.0121 358.823 38.4089C358.716 37.7241 358.194 37.0412 357.778 36.4945C353.154 30.4089 345.083 28.1605 337.865 27.164C337.911 26.8426 337.982 26.875 338.226 26.6839C338.596 26.7434 339.12 26.8668 339.49 26.8057C340.24 26.6821 340.504 26.3513 340.963 25.8131L340.861 25.1789C339.84 24.0361 339.18 24.1383 337.726 23.922C338.604 23.8122 339.477 23.7475 340.359 23.6917Z"/>
	<path fill="#FAAB3A" d="M337.865 27.164C332.588 26.0009 326.241 27.8445 322.733 27.112C322.431 27.049 322.403 26.8396 322.245 26.5916C322.293 26.3307 322.353 26.0673 322.479 25.8311C322.866 25.1062 323.756 24.7215 324.492 24.456C327.025 23.5423 338.027 22.5857 340.359 23.6917C339.477 23.7475 338.604 23.8122 337.726 23.922C339.18 24.1383 339.84 24.0361 340.861 25.1789L340.963 25.8131C340.504 26.3513 340.24 26.6821 339.49 26.8057C339.12 26.8668 338.596 26.7434 338.226 26.6839C337.982 26.875 337.911 26.8426 337.865 27.164Z"/>
	<path fill="#6A89CF" d="M253.058 227.026C258.753 228.817 264.098 229.702 270.069 229.941C272.105 230.022 276.104 229.415 277.817 229.945C278.1 230.629 278.082 230.744 277.949 231.478C276.507 232.429 263.985 232.832 261.798 232.776C259.766 232.724 257.705 232.532 255.712 232.123Q254.383 231.846 253.066 231.519C254.526 230.855 255.942 231.504 257.424 231.754L257.798 231.471C257.859 231.125 257.975 230.655 257.936 230.3C257.721 228.342 254.779 228.361 253.174 227.118L253.058 227.026Z"/>
	<path fill="#FEFEFE" fill-opacity="0.75686276" d="M0 1.07325C0.535675 2.01008 0.488106 2.88062 0.500693 3.92752C0.963373 42.4122 0.504919 80.9569 0.505405 119.449C0.506008 167.19 0.857792 214.963 0.297774 262.698C0.160948 274.361 0.389547 286.074 0.40815 297.743C0.415854 302.575 1.16654 308.631 0 313.281L0 1.07325Z"/>
	<path fill="#1C4FA2" d="M149.148 258.649L149.375 258.781C149.404 261.215 149.019 263.727 148.923 266.175C148.736 270.968 148.822 275.794 148.821 280.591C148.821 286.509 148.437 292.569 149.792 298.366C147.822 298.975 139.601 298.534 137.107 298.536L136.686 298.296C137.132 297.186 137.542 295.949 137.656 294.752C138.074 290.364 137.748 285.631 137.748 281.214C137.749 273.834 138.128 266.225 137.186 258.896C141.158 259.154 145.182 258.907 149.148 258.649Z"/>
	<path fill="#1C4FA2" d="M517.611 258.593C525.098 257.966 532.378 260.017 539.733 260.976C539.787 261.244 539.823 261.515 539.801 261.789C539.664 263.546 535.798 271.092 534.418 272.271C534.29 272.111 534.261 272.06 534.078 271.917C529.893 268.65 524.064 268.001 518.943 268.472C515.094 268.825 511.465 270.368 508.976 273.409C507.502 275.21 506.607 277.483 506.898 279.833C507.195 282.23 508.731 284.183 510.579 285.638C515.479 289.497 523.138 290.089 528.831 287.57C530.737 286.726 533.333 284.912 535.346 284.675L535.456 285.257C535.492 285.295 535.53 285.331 535.565 285.371C536.942 286.922 541.251 292.89 541.102 294.916C536.74 295.98 532.352 297.181 527.922 297.919C519.958 299.245 510.222 298.68 503.461 293.807C499.46 290.924 496.467 286.51 495.704 281.598C494.957 276.784 496.096 271.719 499.015 267.799C503.606 261.634 510.317 259.633 517.611 258.593Z"/>
	<path fill="#1C4FA2" d="M286.224 258.64L286.465 258.784C285.472 265.348 284.886 278.562 286.151 284.95C286.809 285.794 287.501 286.584 288.305 287.293C290.673 289.381 293.627 289.801 296.683 289.556C299.079 289.365 301.36 288.459 302.922 286.574C303.866 285.436 304.435 284.086 304.714 282.642C305.767 277.197 304.905 264.768 304.317 258.709C308.274 258.84 312.621 259.182 316.53 258.562Q315.95 263.59 315.879 268.65C315.841 271.025 316.057 273.685 315.711 276.015C315.656 276.383 315.477 276.719 315.28 277.03C315.51 277.418 315.671 277.789 315.743 278.238C316.469 282.736 315.478 288.606 312.694 292.213C309.733 296.05 305.176 297.689 300.531 298.281C294.075 299.103 285.63 298.791 280.314 294.609Q279.52 293.996 278.825 293.273Q278.129 292.55 277.547 291.733Q276.965 290.916 276.509 290.022Q276.053 289.129 275.733 288.178C273.78 282.287 274.775 274.7 274.748 268.54C274.734 265.26 274.499 262.039 274.108 258.783C278.109 259.074 282.223 258.861 286.224 258.64Z"/>
	<path fill="#1C4FA2" d="M235.762 258.848C244.461 257.187 253.183 261.925 261.748 261.164C260.326 264.306 258.271 267.14 256.95 270.31C253.091 267.563 248.698 266.31 244.011 265.941C241.001 265.704 234.335 265.347 231.913 267.423C231.594 268.049 231.461 268.853 231.557 269.555C231.718 270.74 232.572 271.411 233.62 271.818C235.433 272.522 237.582 272.558 239.504 272.742C245.589 273.327 254.082 273.382 258.962 277.494C261.144 279.332 262.305 281.794 262.5 284.624C262.715 287.748 261.814 290.345 259.743 292.707C255.701 297.316 249.534 298.133 243.779 298.468C239.28 298.644 234.817 298.422 230.392 297.558C226.584 296.813 222.849 295.683 218.961 295.451C221.204 291.703 222.681 288.325 223.496 284.023C226.214 286.083 229.453 287.892 232.693 288.976C237.344 290.532 244.776 291.133 249.254 288.833C250.588 288.148 251.811 287.096 252.284 285.639C252.171 284.847 252.096 284.424 251.394 283.912C247.98 281.42 236.648 281.52 231.968 280.542C229.249 279.973 226.441 278.998 224.234 277.273C222.626 276.017 221.477 274.37 221.252 272.309C220.961 269.634 221.778 266.677 223.463 264.573C226.599 260.657 231.008 259.398 235.762 258.848Z"/>
	<path fill="#1C4FA2" d="M396.329 259.178C399.529 258.397 409.031 259.098 413.158 258.96C414.493 261.512 415.171 264.787 416.234 267.519Q420.746 278.836 425.388 290.101C426.177 291.973 429.149 296.913 429.07 298.526Q422.349 298.399 415.626 298.433C415.879 298.003 415.965 297.638 415.947 297.145C415.876 295.175 415.194 292.096 413.726 290.712L413.626 290.105C411.489 289.167 399.077 289.8 395.889 289.846C395.898 291.404 394.565 293.469 394.193 295.048C393.935 296.145 394.191 297.46 393.72 298.462C389.691 298.43 385.658 298.478 381.628 298.488C382.262 298.004 382.664 297.417 383.028 296.716C386.197 290.606 388.428 283.635 390.865 277.193C392.703 272.334 395.012 267.285 396.225 262.24C396.481 261.177 396.668 260.241 396.329 259.178Z"/>
	<path fill="#FEFEFE" d="M402.877 267.382C403.076 267.356 403.289 267.323 403.491 267.337C404.309 267.394 405.065 268.233 405.543 268.845C406.872 270.543 411.834 281.968 411.605 283.849L406.567 283.935Q401.957 284.007 397.352 283.789C397.536 283.617 397.701 283.439 397.856 283.238C399.257 281.43 403.143 269.462 402.877 267.382Z"/>
	<path fill="#1C4FA2" d="M589.848 258.3L590.687 258.432C590.735 258.508 590.821 258.633 590.855 258.725C591.374 260.12 591.258 267.025 590.542 268.372C585.11 266.51 570.314 267.454 563.985 267.546C564.132 267.772 564.259 268.005 564.344 268.262C564.791 269.598 564.654 272.698 564.048 273.97C569.277 274.209 576.542 275.204 581.457 273.37C582.36 275.504 581.817 280.254 581.689 282.611C581.314 282.975 581.278 282.848 580.771 282.751C575.18 281.679 569.758 281.937 564.095 281.996C564.194 282.217 564.283 282.446 564.334 282.684C564.675 284.277 564.763 287.895 563.899 289.285C571.971 289.516 580.432 290.132 588.422 288.937C589.178 288.824 590.206 288.566 590.825 289.014L590.416 289.945C590.547 290.155 590.658 290.365 590.75 290.596C591.4 292.228 591.253 297.374 590.524 298.909C585.202 297.778 578.904 298.384 573.474 298.451Q562.94 298.555 552.406 298.534C552.67 297.972 552.88 297.399 552.995 296.787C553.856 292.224 554.227 261.337 552.443 258.771C558.597 259.176 585.009 260.114 589.848 258.3Z"/>
	<path fill="#1C4FA2" d="M10.9395 258.791C16.8607 259.582 25.9582 259.107 32.1772 259.119C35.1066 259.125 38.2282 258.93 41.092 259.621C43.0751 260.1 45.0109 261.19 46.5043 262.572Q46.9365 262.964 47.3278 263.397Q47.7192 263.83 48.0657 264.3Q48.4123 264.77 48.7107 265.271Q49.0091 265.773 49.2564 266.302Q49.5038 266.831 49.6976 267.381Q49.8914 267.932 50.0299 268.499Q50.1683 269.066 50.25 269.644Q50.3316 270.222 50.3557 270.805C50.4579 274.075 49.1139 277.419 46.8358 279.753C43.0847 283.598 38.4816 283.757 33.4717 283.766C29.7361 283.769 25.9936 283.892 22.2585 283.968C22.2657 288.557 21.862 294.203 23.4427 298.534L10.1937 298.447C12.6096 292.399 11.4772 266.624 10.9395 258.791Z"/>
	<path fill="#FEFEFE" d="M22.2996 266.983C26.3436 266.957 34.0942 266.327 37.6333 267.93C38.5807 268.359 39.3913 269.063 39.7381 270.071C40.2947 271.69 39.6053 273.54 38.916 275.011C33.6638 276.494 27.6014 275.857 22.2032 275.573L22.2996 266.983Z"/>
	<path fill="#1C4FA2" d="M76.4154 258.863C84.3488 258.272 90.9496 260.584 98.5162 262.342C97.4222 265.291 95.4751 267.831 94.7158 270.926C89.4557 267.968 83.09 265.973 76.9999 266.819C73.424 267.316 70.0569 269.104 67.8781 272.023Q67.5462 272.463 67.2589 272.933Q66.9717 273.404 66.7319 273.9Q66.4921 274.396 66.3021 274.914Q66.1121 275.431 65.9736 275.965Q65.8352 276.498 65.7497 277.043Q65.6642 277.587 65.6324 278.137Q65.6006 278.688 65.6229 279.238Q65.6452 279.789 65.7213 280.335C66.1717 283.377 68.0757 285.812 70.53 287.564C76.0739 291.522 83.8387 290.754 90.2047 289.726C90.5782 287.799 90.7476 285.929 90.8504 283.97C86.8874 283.872 82.6369 283.662 78.7114 284.24L78.8788 275.996L82.2511 276.253Q92.252 276.621 102.25 276.181C101.402 281.906 101.932 288.185 102.312 293.943C96.9205 296.197 91.448 297.714 85.622 298.27C77.3871 299.056 68.2699 298.75 61.6183 293.212C57.7581 289.999 55.1409 285.518 54.717 280.46C54.2849 275.302 55.6283 270.353 59.0339 266.383C63.6187 261.038 69.6435 259.402 76.4154 258.863Z"/>
	<path fill="#1C4FA2" d="M472.557 258.842C476.111 258.984 479.735 259.202 483.266 258.672C483.796 261.077 483.126 264.696 483.07 267.231C482.942 272.972 482.996 278.73 483.005 284.473C483.011 288.146 482.73 292.233 483.378 295.847C483.526 296.675 483.708 297.192 484.298 297.797C484.518 298.022 484.627 298.197 484.773 298.471L484.133 298.234L484.425 298.568C482.791 298.62 481.151 298.588 479.517 298.587C478.311 298.589 473.459 298.936 472.674 298.297C472.112 297.84 471.285 294.891 470.573 293.975C468.216 290.941 465.185 288.166 462.585 285.317C459.631 282.082 456.895 278.558 453.709 275.554C452.547 274.457 451.421 273.471 449.941 272.816C449.964 272.857 449.988 272.896 450.009 272.938C450.044 273.007 450.075 273.078 450.11 273.147C452.224 277.382 448.992 292.35 452.069 298.228L452.154 298.388C450.162 298.845 442.598 298.58 440.205 298.425C441.374 293.837 441.936 262.662 440.248 258.885C444.396 258.359 450.019 259.231 454.936 258.684C455.333 259.045 456.104 262.641 457.132 263.851C459.066 266.127 472.56 280.2 472.848 280.976C472.877 280.907 472.904 280.838 472.935 280.771C473.059 280.5 473.181 280.242 473.265 279.955C473.876 277.862 473.57 260.646 472.557 258.842Z"/>
	<path fill="#1C4FA2" d="M208.4 258.617C208.615 258.564 208.483 258.572 208.792 258.687C207.693 265.855 206.626 292.371 209.157 298.454Q203.488 298.634 197.816 298.636C197.515 297.561 197.208 296.493 196.584 295.555C194.141 291.881 190.678 288.714 187.705 285.471C183.804 281.215 180.158 276.06 175.181 273.005C176.193 279.6 175.604 286.313 175.923 292.948C176.01 294.74 176.765 296.58 176.667 298.327C175.011 298.61 173.226 298.489 171.548 298.491L165.052 298.551C166.924 290.717 166.118 267.616 165.545 258.734C168.191 258.857 177.617 258.307 179.244 258.948C179.939 259.223 181.482 263.123 182.227 263.985C187.166 269.702 192.389 275.991 198.097 280.918C198.102 273.521 198.134 266.137 197.795 258.746C201.341 258.986 204.86 258.886 208.4 258.617Z"/>
	<path fill="#1C4FA2" d="M332.13 258.882C337.988 258.889 343.846 259.078 349.704 259.117C354.118 259.146 358.729 258.921 363.119 259.387C364.597 259.544 366.077 259.846 367.442 260.447Q367.924 260.654 368.383 260.907Q368.842 261.161 369.273 261.458Q369.704 261.756 370.104 262.096Q370.504 262.435 370.867 262.813Q371.231 263.19 371.556 263.602Q371.88 264.014 372.162 264.456Q372.444 264.898 372.681 265.366Q372.917 265.834 373.106 266.323C374.257 269.313 374.193 273.092 372.864 276.015C370.947 280.231 366.726 282.565 362.595 284.149C362.808 284.276 363.013 284.413 363.208 284.567C364.403 285.505 373.413 297.318 373.577 298.475C371.406 298.614 369.193 298.536 367.017 298.534C364.5 298.466 361.966 298.533 359.448 298.538C359.528 298.37 359.587 298.197 359.641 298.019C359.925 297.076 359.927 295.984 359.445 295.111C358.316 292.247 352.868 284.849 350.268 283.611C348.018 283.298 345.635 283.517 343.366 283.593C343.386 283.631 343.405 283.668 343.426 283.705C343.578 283.988 343.725 284.281 343.763 284.605C344.122 287.674 343.927 290.929 344.151 294.036C344.248 295.37 344.847 297.31 344.564 298.565Q338.209 298.465 331.855 298.592C331.968 298.417 331.966 298.427 332.077 298.215C333.32 295.853 333.236 262.039 332.13 258.882Z"/>
	<path fill="#FEFEFE" d="M343.66 267.087C347.047 266.48 353.076 266.722 356.577 267.135C358.377 267.347 361.135 267.857 362.259 269.462C362.677 270.06 362.735 270.767 362.601 271.468C362.382 272.62 361.687 273.381 360.725 273.987C360.632 274.201 360.397 274.421 360.247 274.604C357.102 276.34 347.249 275.405 343.27 275.332C343.378 275.176 343.473 275.017 343.551 274.843C344.185 273.442 344.178 268.47 343.66 267.087Z"/>
	<path fill="#FAAB3A" d="M358.823 38.4089C359.178 38.0121 359.196 37.9217 359.299 37.3943C355.739 32.5056 351.011 29.5424 345.335 27.5507C345.929 27.3057 345.991 27.3203 346.331 26.7365C346.069 26.1652 345.879 25.8122 345.993 25.1796C346.113 25.138 346.265 25.0739 346.399 25.0617C347.917 24.9218 356.959 28.774 358.656 29.7672C360.356 30.7628 361.908 32.1501 363.443 33.3822L363.64 33.0743C365.729 34.2166 388.143 60.5507 390.402 63.8749Q391.852 66.0081 392.957 68.3392Q394.061 70.6703 394.794 73.1437C398.747 86.6529 393.244 105.532 387.582 118.075C385.116 123.539 382.077 128.825 379.183 134.076C375.677 140.436 371.646 146.369 367.498 152.317C353.624 172.207 338.128 189.518 320.613 206.226C315.847 210.772 310.745 216.61 304.631 219.245Q296.594 208.031 288.328 196.984L277.112 182.34C274.18 178.532 270.112 174.297 268.29 169.88C273.154 164.775 279.372 160.557 284.587 155.751C307.857 134.307 363.255 83.7917 362.411 50.7361C362.321 47.2092 361.381 41.0329 358.823 38.4089Z"/>
	<path fill="#1C4FA2" d="M295.403 36.7461C297.942 41.1611 301.797 45.3724 304.883 49.4611L324.717 75.8482C326.4 78.0819 330.759 82.8658 331.786 85.1545C332.451 86.6364 319.895 96.9555 318.156 98.5166C293.278 120.851 250.63 160.724 240.231 192.227C237.606 200.177 236.733 208.605 240.638 216.286C243.165 221.257 247.747 225.289 253.058 227.026L253.174 227.118C254.779 228.361 257.721 228.342 257.936 230.3C257.975 230.655 257.859 231.125 257.798 231.471L257.424 231.754C255.942 231.504 254.526 230.855 253.066 231.519C248.052 230.031 243.034 228.172 238.804 225.021C233.829 221.316 210.914 194.388 207.924 188.995C202.141 178.566 204.235 164.589 207.387 153.676C218.078 116.67 249.132 79.7623 276.361 53.3103C281.744 48.0815 289.026 40.262 295.403 36.7461Z"/>
</svg>
