<svg xmlns="http://www.w3.org/2000/svg" id="Artboard_30" data-name="Artboard 30" viewBox="0 0 64 64" width="512" height="512" fill="white"><path d="M36.581,47.122a15.775,15.775,0,0,0,2.874-1.189l3.978,3.093a1,1,0,0,0,1.321-.082l4.19-4.19a1,1,0,0,0,.083-1.321l-3.095-3.979a15.687,15.687,0,0,0,1.19-2.873l5-.626A1,1,0,0,0,53,34.963V29.037a1,1,0,0,0-.876-.992l-5-.626a15.687,15.687,0,0,0-1.19-2.873l3.095-3.979a1,1,0,0,0-.083-1.321l-4.19-4.19a1,1,0,0,0-1.321-.082l-3.978,3.093a15.775,15.775,0,0,0-2.874-1.189l-.626-5A1,1,0,0,0,34.963,11H29.037a1,1,0,0,0-.992.876l-.626,5a15.775,15.775,0,0,0-2.874,1.189l-3.978-3.093a1,1,0,0,0-1.321.082l-4.19,4.19a1,1,0,0,0-.083,1.321l3.1,3.979a15.687,15.687,0,0,0-1.19,2.873l-5,.626a1,1,0,0,0-.876.992v5.926a1,1,0,0,0,.876.992l5,.626a15.687,15.687,0,0,0,1.19,2.873l-3.1,3.979a1,1,0,0,0,.083,1.321l4.19,4.19a1,1,0,0,0,1.321.082l3.978-3.093a15.775,15.775,0,0,0,2.874,1.189l.626,5a1,1,0,0,0,.992.876h5.926a1,1,0,0,0,.992-.876Zm-1.158-1.753a1,1,0,0,0-.744.845L34.08,51H29.92l-.6-4.786a1,1,0,0,0-.744-.845,13.716,13.716,0,0,1-3.609-1.494,1,1,0,0,0-1.125.07l-3.807,2.961-2.942-2.942,2.961-3.807a1,1,0,0,0,.07-1.125,13.725,13.725,0,0,1-1.494-3.609,1,1,0,0,0-.845-.744L13,34.08V29.92l4.786-.6a1,1,0,0,0,.845-.744,13.725,13.725,0,0,1,1.494-3.609,1,1,0,0,0-.07-1.125l-2.961-3.807,2.942-2.942,3.807,2.961a1,1,0,0,0,1.125.07,13.716,13.716,0,0,1,3.609-1.494,1,1,0,0,0,.744-.845L29.92,13h4.16l.6,4.786a1,1,0,0,0,.744.845,13.716,13.716,0,0,1,3.609,1.494,1,1,0,0,0,1.125-.07l3.807-2.961,2.942,2.942-2.961,3.807a1,1,0,0,0-.07,1.125,13.725,13.725,0,0,1,1.494,3.609,1,1,0,0,0,.845.744l4.786.6v4.16l-4.786.6a1,1,0,0,0-.845.744,13.725,13.725,0,0,1-1.494,3.609,1,1,0,0,0,.07,1.125l2.961,3.807-2.942,2.942-3.807-2.961a1,1,0,0,0-1.125-.07A13.716,13.716,0,0,1,35.423,45.369Z"></path><path d="M32,22.111A9.889,9.889,0,1,0,41.889,32,9.9,9.9,0,0,0,32,22.111Zm0,17.778A7.889,7.889,0,1,1,39.889,32,7.9,7.9,0,0,1,32,39.889Z"></path><path d="M32.4,5.01l2.3-2.3L33.293,1.293l-4,4a1,1,0,0,0,0,1.414l4,4,1.414-1.414L32.425,7.011a25,25,0,0,1,3.384,49.7l.3,1.976A27,27,0,0,0,32.4,5.01Z"></path><path d="M28.707,53.293l-1.414,1.414,2.164,2.164A25,25,0,0,1,26.59,7.587l-.43-1.953A27,27,0,0,0,29.691,58.9l-2.4,2.4,1.414,1.414,4-4a1,1,0,0,0,0-1.414Z"></path></svg>