<svg xmlns="http://www.w3.org/2000/svg" id="Layer_3" data-name="Layer 3" viewBox="0 0 64 64" width="512" height="512" fill="white"><circle cx="26" cy="58" r="2"></circle><path d="M42,9H37a1,1,0,0,0-1,1v8a1,1,0,0,0,1,1h5a1,1,0,0,0,1-1V10A1,1,0,0,0,42,9Zm-1,8H38V11h3Z"></path><path d="M42,21H37a1,1,0,0,0-1,1v8a1,1,0,0,0,1,1h5a1,1,0,0,0,1-1V22A1,1,0,0,0,42,21Zm-1,8H38V23h3Z"></path><path d="M62,37H56.414l-3.707-3.707A1,1,0,0,0,52,33H51V6a5.006,5.006,0,0,0-5-5H6A5.006,5.006,0,0,0,1,6V58a5.006,5.006,0,0,0,5,5H46a5.006,5.006,0,0,0,5-5V55h1a1,1,0,0,0,.447-.1L56.236,53H62a1,1,0,0,0,1-1V38A1,1,0,0,0,62,37ZM49,58a3,3,0,0,1-3,3H6a3,3,0,0,1-3-3V6A3,3,0,0,1,6,3H46a3,3,0,0,1,3,3V33H47V6a1,1,0,0,0-1-1H6A1,1,0,0,0,5,6V54a1,1,0,0,0,1,1H49ZM41,37H38V35h3Zm2-1V34a1,1,0,0,0-1-1H37a1,1,0,0,0-1,1v3H35a3,3,0,0,0,0,6h4v1a2.981,2.981,0,0,0,.78,2A2.972,2.972,0,0,0,41,50.816V52a2.966,2.966,0,0,0,.184,1H7V7H45V33.184A3,3,0,0,0,43,36ZM61,51H56a1,1,0,0,0-.447.1L51.764,53H44a1,1,0,0,1-1-1V51h5V49H42a1,1,0,0,1,0-2h6V45H42a1,1,0,0,1-1-1V43h7V41H35a1,1,0,0,1,0-2H48V37H45V36a1,1,0,0,1,1-1h5.586l3.707,3.707A1,1,0,0,0,56,39h5Z"></path><path d="M24,21H20a3,3,0,0,0-3,3v6a3,3,0,0,0,3,3h4a3,3,0,0,0,3-3V24A3,3,0,0,0,24,21Zm1,9a1,1,0,0,1-1,1H20a1,1,0,0,1-1-1V24a1,1,0,0,1,1-1h4a1,1,0,0,1,1,1Z"></path><path d="M32,17H31V16a7.009,7.009,0,0,0-7-7H20a7.009,7.009,0,0,0-7,7v1H12a3,3,0,0,0-3,3v1a3,3,0,0,0,3,3h1V36a5.006,5.006,0,0,0,5,5h8a5.006,5.006,0,0,0,5-5V24h1a3,3,0,0,0,3-3V20A3,3,0,0,0,32,17ZM27,35a3,3,0,0,0-3,3v1H20V38a3,3,0,0,0-3-3H15V19H29V35Zm1.576-21H27a1,1,0,0,1-1-1V11.424A5.021,5.021,0,0,1,28.576,14ZM24,11v2a3,3,0,0,0,3,3h2v1H15V16h2a3,3,0,0,0,3-3V11Zm-6,.424V13a1,1,0,0,1-1,1H15.424A5.021,5.021,0,0,1,18,11.424ZM12,22a1,1,0,0,1-1-1V20a1,1,0,0,1,1-1h1v3Zm3.184,15H17a1,1,0,0,1,1,1v1A3,3,0,0,1,15.184,37ZM26,39V38a1,1,0,0,1,1-1h1.816A3,3,0,0,1,26,39Zm7-18a1,1,0,0,1-1,1H31V19h1a1,1,0,0,1,1,1Z"></path><path d="M10,43a1,1,0,0,0-1,1v6a1,1,0,0,0,1,1H32a1,1,0,0,0,1-1V44a1,1,0,0,0-1-1Zm21,6H11V45H31Z"></path></svg>