<svg xmlns="http://www.w3.org/2000/svg" id="Layer_3" data-name="Layer 3" viewBox="0 0 64 64" width="50" height="50">
                                        <path d="M62,21H47.473a16,16,0,1,0-30.946,0H2a1,1,0,0,0-1,1V62a1,1,0,0,0,1,1H62a1,1,0,0,0,1-1V22A1,1,0,0,0,62,21ZM27.182,43.057,3,60.074V24.057Zm1.768,1.2a6.642,6.642,0,0,0,6.1,0L58.842,61H5.158Zm7.868-1.2L61,24.058V60.074ZM32,3A14,14,0,1,1,18,17,14.015,14.015,0,0,1,32,3Zm0,30A16.017,16.017,0,0,0,46.822,23H59.109L34.955,41.979a4.916,4.916,0,0,1-5.909,0L4.891,23H17.178A16.017,16.017,0,0,0,32,33Z"></path>
                                        <path d="M32.5,26H37V24H32.5A8.51,8.51,0,0,1,24,15.5a7.5,7.5,0,0,1,15,0V18a2,2,0,0,1-2,2,1,1,0,0,1-1-1V10H34v1.25A4.4,4.4,0,0,0,32.585,11H32a5,5,0,0,0,0,10h.586a4.37,4.37,0,0,0,1.869-.43A2.993,2.993,0,0,0,37,22a4,4,0,0,0,4-4V15.5a9.5,9.5,0,0,0-19,0A10.512,10.512,0,0,0,32.5,26ZM32,19a3,3,0,0,1,0-6h.585A2.4,2.4,0,0,1,34,13.466v5.068A2.4,2.4,0,0,1,32.586,19Z"></path>
                                    </svg>