<svg xmlns="http://www.w3.org/2000/svg" id="Layer_3" data-name="Layer 3" viewBox="0 0 64 64" width="512" height="512" fill="white"><path d="M46,46a4,4,0,1,0,4,4A4,4,0,0,0,46,46Zm0,6a2,2,0,1,1,2-2A2,2,0,0,1,46,52Z"></path><path d="M16,46a4,4,0,1,0,4,4A4,4,0,0,0,16,46Zm0,6a2,2,0,1,1,2-2A2,2,0,0,1,16,52Z"></path><path d="M54,34H47.566l-4.544-7.573A5.023,5.023,0,0,0,38.735,24H16.708a4.977,4.977,0,0,0-4.643,3.143L9.323,34H6a5.006,5.006,0,0,0-5,5v7a5.006,5.006,0,0,0,5,5H7a1,1,0,0,0,1-1,8,8,0,0,1,16,0,1,1,0,0,0,1,1H37a1,1,0,0,0,1-1,8,8,0,0,1,16,0,1,1,0,0,0,1,1h5a3,3,0,0,0,3-3V43A9.011,9.011,0,0,0,54,34Zm6.28,5.927a4.985,4.985,0,0,1-4.067-3.563A7.027,7.027,0,0,1,60.28,39.927ZM45.234,34H30V30H42.834ZM11.477,34l1.6-4H28v4Zm5.231-8H38.735a3.015,3.015,0,0,1,2.573,1.457l.326.543H13.877l.046-.114A2.984,2.984,0,0,1,16.708,26ZM6,36h.9A5.016,5.016,0,0,1,3,39.9V39A3,3,0,0,1,6,36ZM61,48a1,1,0,0,1-1,1H55.95a10,10,0,0,0-19.9,0H25.95a10,10,0,0,0-19.9,0H6a3,3,0,0,1-3-3V41.92A7,7,0,0,0,8.92,36H54c.027,0,.053,0,.081,0A7,7,0,0,0,60.919,42,6.926,6.926,0,0,1,61,43Z"></path><rect x="24" y="38" width="6" height="2"></rect><rect x="32" y="38" width="6" height="2"></rect><path d="M62,55H50.89a7,7,0,1,0-9.78,0H20.89a7,7,0,1,0-9.78,0H2a1,1,0,0,0-1,1v6a1,1,0,0,0,1,1H62a1,1,0,0,0,1-1V56A1,1,0,0,0,62,55ZM41,50a5,5,0,1,1,5,5A5.006,5.006,0,0,1,41,50ZM11,50a5,5,0,1,1,5,5A5.006,5.006,0,0,1,11,50ZM61,61H3V57H61Z"></path><path d="M23,19h1v1h2V19h1a3,3,0,0,0,3-3V14a3,3,0,0,0-3-3H26V7h1a1,1,0,0,1,1,1V9h2V8a3,3,0,0,0-3-3H26V4H24V5H23a3,3,0,0,0-3,3v2a3,3,0,0,0,3,3h1v4H23a1,1,0,0,1-1-1V15H20v1A3,3,0,0,0,23,19Zm0-8a1,1,0,0,1-1-1V8a1,1,0,0,1,1-1h1v4Zm3,2h1a1,1,0,0,1,1,1v2a1,1,0,0,1-1,1H26Z"></path><path d="M25,23a10.938,10.938,0,0,0,2.991-.424,11,11,0,1,0,0-21.152A11,11,0,1,0,25,23ZM40,12a9,9,0,0,1-8.673,8.983,10.971,10.971,0,0,0,0-17.966A9,9,0,0,1,40,12ZM25,3a9,9,0,1,1-9,9A9.011,9.011,0,0,1,25,3Z"></path></svg>