<svg xmlns="http://www.w3.org/2000/svg" id="Layer_3" data-name="Layer 3" viewBox="0 0 64 64" width="512" height="512" fill="white"><circle cx="41" cy="17" r="2"></circle><path d="M55.451,40.333,47,38.22V36.981A10.033,10.033,0,0,0,50.539,32H51a4,4,0,0,0,0-8V18a6.54,6.54,0,0,0-4.479-6.213A15.271,15.271,0,0,0,41.676,11H40.324a15.3,15.3,0,0,0-4.845.786A6.542,6.542,0,0,0,31,18v6a4,4,0,0,0,0,8h.461A10.033,10.033,0,0,0,35,36.981V38.22l-2.463.616L32.411,36.9A6.47,6.47,0,0,0,26,31H12a6.475,6.475,0,0,0-6.413,5.918l-.2,3.064H4a2.993,2.993,0,0,0-.177,5.982A5.954,5.954,0,0,0,3,48.982v4.185A2.982,2.982,0,0,0,3,58.8v1.184a3,3,0,0,0,3,3H8a3,3,0,0,0,3-3v-1h8V62a1,1,0,0,0,1,1H62a1,1,0,0,0,1-1V50A9.947,9.947,0,0,0,55.451,40.333ZM54,55.062V61H28V55.062L29.682,41.61,32,41.031V51a1,1,0,0,0,1,1H49a1,1,0,0,0,1-1V41.031l2.318.579Zm-38-6.08a4.214,4.214,0,0,0-3.789,2.342l-.829,1.658H5v-2H8.192A2.807,2.807,0,0,0,9.3,45.594l-1.181-.506A3.959,3.959,0,0,1,9,44.982H20.359a9.935,9.935,0,0,0-1.3,4Zm3,2v2H13.618L14,52.219a2.223,2.223,0,0,1,2-1.237ZM6.005,46.358,8.51,47.432a.808.808,0,0,1-.318,1.55H5A3.965,3.965,0,0,1,6.005,46.358ZM37,17a3.889,3.889,0,0,1,3.117-3.8L41,13.02l.883.176A3.889,3.889,0,0,1,45,17v4.308A19.822,19.822,0,0,0,41.528,21H40.472A19.822,19.822,0,0,0,37,21.308Zm3.472,6h1.056a18.06,18.06,0,0,1,6.99,1.421l-.5.747a1.894,1.894,0,0,1-2.146.735l-.66-.218a13.375,13.375,0,0,0-8.427,0l-.663.22a1.9,1.9,0,0,1-2.144-.736l-.5-.747A18.06,18.06,0,0,1,40.472,23ZM53,28a2,2,0,0,1-2,2h-.051A10.007,10.007,0,0,0,51,29V26A2,2,0,0,1,53,28ZM49,18v4.462a19.824,19.824,0,0,0-2-.688V17a5.841,5.841,0,0,0-1.03-3.281A4.538,4.538,0,0,1,49,18ZM36.031,13.718A5.835,5.835,0,0,0,35,17v4.774a19.824,19.824,0,0,0-2,.688V18A4.538,4.538,0,0,1,36.031,13.718ZM31,30a2,2,0,0,1,0-4v3a10.007,10.007,0,0,0,.051,1Zm2-1V27.029a3.938,3.938,0,0,0,3.757.773l.662-.221a11.366,11.366,0,0,1,7.163,0l.659.219A3.857,3.857,0,0,0,49,27.049V29a8,8,0,0,1-16,0Zm8,10a9.929,9.929,0,0,0,4-.841v.718a4.122,4.122,0,0,1-8,0v-.717A9.929,9.929,0,0,0,41,39Zm-5.656,1.194a6.106,6.106,0,0,0,11.312,0L48,40.53V50H34V40.53Zm-7.654-.146A3.952,3.952,0,0,0,25,38.982a4,4,0,0,0-4,4H9a5.962,5.962,0,0,0-1.821.285l.4-6.2c0-.022.01-.043.012-.065H30.408c0,.016.008.031.009.047l.148,2.282Zm-3.021.968a9.912,9.912,0,0,0-1.153.638A1.993,1.993,0,0,1,24.669,41.016ZM12,33H26a4.448,4.448,0,0,1,3.682,2H8.321A4.442,4.442,0,0,1,12,33ZM3,42.982a1,1,0,0,1,1-1H5.258l-.13,2H4A1,1,0,0,1,3,42.982Zm6,17a1,1,0,0,1-1,1H6a1,1,0,0,1-1-1v-1H9Zm-5-3a1,1,0,0,1,0-2H19v2ZM21,50a7.954,7.954,0,0,1,6.033-7.728l.568-.142L26.008,54.876A1.032,1.032,0,0,0,26,55v6H21ZM61,61H56V55a1.032,1.032,0,0,0-.008-.124L54.4,42.13l.568.142A7.954,7.954,0,0,1,61,50Z"></path><rect x="32" y="57" width="18" height="2"></rect><path d="M27.832,2.555A1,1,0,0,0,27,1H25a5.006,5.006,0,0,0-5,5V8.586L11.586,17H9a5.006,5.006,0,0,0-5,5v2a1,1,0,0,0,1.555.832l2.42-1.613A1.288,1.288,0,0,1,8.7,23,1.3,1.3,0,0,1,10,24.3a1.288,1.288,0,0,1-.219.722l-1.613,2.42A1,1,0,0,0,9,29h2a5.006,5.006,0,0,0,5-5V21.414L24.414,13H27a5.006,5.006,0,0,0,5-5V6a1,1,0,0,0-1.555-.832l-2.42,1.613A1.288,1.288,0,0,1,27.3,7,1.3,1.3,0,0,1,26,5.7a1.288,1.288,0,0,1,.219-.722ZM27.3,9a3.283,3.283,0,0,0,1.832-.555L30,7.868V8a3,3,0,0,1-3,3H24a1,1,0,0,0-.707.293l-9,9A1,1,0,0,0,14,21v3a3,3,0,0,1-3,3h-.132l.577-.865a3.3,3.3,0,0,0-4.58-4.58L6,22.132V22a3,3,0,0,1,3-3h3a1,1,0,0,0,.707-.293l9-9A1,1,0,0,0,22,9V6a3,3,0,0,1,3-3h.132l-.577.865A3.3,3.3,0,0,0,27.3,9Z"></path></svg>