<svg xmlns="http://www.w3.org/2000/svg" id="Layer_3" data-name="Layer 3" viewBox="0 0 64 64" width="512" height="512">
<path d="M55.172,37H48.828a7.882,7.882,0,0,0-5.535,2.292A5.79,5.79,0,0,1,39.172,41h-.1A16.072,16.072,0,0,1,23,24.929v-.1a5.789,5.789,0,0,1,1.707-4.121A7.777,7.777,0,0,0,27,15.171V8.828a7.777,7.777,0,0,0-2.293-5.536A7.882,7.882,0,0,0,19.172,1H8.827A7.827,7.827,0,0,0,1,8.828v1.958A51.872,51.872,0,0,0,16.293,47.707,51.871,51.871,0,0,0,53.213,63h1.959A7.829,7.829,0,0,0,63,55.172V44.828a7.777,7.777,0,0,0-2.293-5.536A7.882,7.882,0,0,0,55.172,37ZM61,55.172A5.828,5.828,0,0,1,55.172,61H53.213A49.885,49.885,0,0,1,17.707,46.293,49.886,49.886,0,0,1,3,10.786V8.828A5.828,5.828,0,0,1,8.827,3H19.172a5.868,5.868,0,0,1,4.121,1.707A5.789,5.789,0,0,1,25,8.828v6.343a5.789,5.789,0,0,1-1.707,4.121A7.777,7.777,0,0,0,21,24.828v.1A18.071,18.071,0,0,0,39.071,43h.1a7.776,7.776,0,0,0,5.535-2.293A5.868,5.868,0,0,1,48.828,39h6.344a5.868,5.868,0,0,1,4.121,1.707A5.789,5.789,0,0,1,61,44.828Z"></path>
<path d="M58,3H36a5.006,5.006,0,0,0-5,5V24a5.006,5.006,0,0,0,5,5h4v7a1,1,0,0,0,1.625.781L51.351,29H58a5.006,5.006,0,0,0,5-5V8A5.006,5.006,0,0,0,58,3Zm3,21a3,3,0,0,1-3,3H51a1,1,0,0,0-.625.219L42,33.919V28a1,1,0,0,0-1-1H36a3,3,0,0,1-3-3V8a3,3,0,0,1,3-3H58a3,3,0,0,1,3,3Z"></path>
<rect x="39" y="11" width="16" height="2"></rect>
<rect x="37" y="15" width="20" height="2"></rect>
<rect x="37" y="19" width="20" height="2"></rect>
</svg>