<svg xmlns="http://www.w3.org/2000/svg" id="Layer_3" data-name="Layer 3" viewBox="0 0 64 64" width="512" height="512" fill="white"><path d="M30,43a1,1,0,0,0,1-1.1l-3-29a1,1,0,0,0-1-.9H5a1,1,0,0,0-1,.9l-3,29A1,1,0,0,0,2,43H6v3.184A2.993,2.993,0,0,0,7,52H25a2.993,2.993,0,0,0,1-5.816V43Zm-1.523-6H26.909L25.1,18h1.412ZM5.9,14H26.1l.207,2H5.7Zm19,23H21.954l-.905-19h2.042Zm-4.949,0H17V18h2.046ZM15,18V37H12.049l.905-19Zm-4.049,0-.905,19H7.1L8.909,18ZM5.488,18H6.9L5.091,37H3.523ZM25,50H7a1,1,0,0,1,0-2H25a1,1,0,0,1,0,2ZM8,46V43h3v3Zm5,0V43h2v3Zm4,0V43h2v3Zm4,0V43h3v3ZM3.109,41l.207-2H28.684l.207,2Z"></path><path d="M62,9H57V6a1,1,0,0,0-1-1H38a1,1,0,0,0-1,1V9H32a1,1,0,0,0-1,1v4a1,1,0,0,0,1,1h2V49H32a1,1,0,0,0-1,1v4a1,1,0,0,0,1,1h5v3a1,1,0,0,0,1,1H56a1,1,0,0,0,1-1V55h5a1,1,0,0,0,1-1V50a1,1,0,0,0-1-1H60V15h2a1,1,0,0,0,1-1V10A1,1,0,0,0,62,9ZM39,7H55V9H39ZM55,57H39V55H55Zm6-6v2H33V51ZM48.414,26,53,21.414,57.586,26,53,30.586Zm9.172,12L53,42.586,48.414,38,53,33.414Zm-6-6L47,36.586,42.414,32,47,27.414ZM41,30.586,36.414,26,41,21.414,45.586,26ZM45.586,38,41,42.586,36.414,38,41,33.414Zm-1,11H37.414L41,45.414Zm-2.171-5L47,39.414,51.586,44,47,48.587ZM53,45.414,56.586,49H49.415ZM54.414,44,58,40.414v7.172Zm0-12L58,28.414v7.172Zm0-12L58,16.414v7.172ZM53,18.586,49.414,15h7.172ZM51.586,20,47,24.586,42.414,20,47,15.414ZM41,18.586,37.414,15h7.172ZM39.586,20,36,23.586V16.414Zm0,12L36,35.586V28.414Zm0,12L36,47.586V40.414ZM61,13H33V11H61Z"></path></svg>