<svg id="Layer_3" height="512" viewBox="0 0 64 64" width="512" xmlns="http://www.w3.org/2000/svg" data-name="Layer 3" fill="white"><path d="m21 17.948v2.638l-1.293-1.293-1.414 1.414 3 3a1 1 0 0 0 1.414 0l3-3-1.414-1.414-1.293 1.293v-2.638c3.94-.371 7-2.894 7-5.948a5.154 5.154 0 0 0 -1.8-3.786l1.507-1.507-1.414-1.414-1.766 1.765a9.891 9.891 0 0 0 -4.527-1.058c-4.411 0-8 2.691-8 6 0 3.054 3.06 5.577 7 5.948zm1-9.948a8.179 8.179 0 0 1 3.019.567l-3.019 3.019-1.293-1.293-1.414 1.414 2 2a1 1 0 0 0 1.414 0l4.079-4.079a3.218 3.218 0 0 1 1.214 2.372c0 2.168-2.748 4-6 4s-6-1.832-6-4 2.748-4 6-4z"></path><path d="m21 37.948v2.638l-1.293-1.293-1.414 1.414 3 3a1 1 0 0 0 1.414 0l3-3-1.414-1.414-1.293 1.293v-2.638c3.94-.371 7-2.894 7-5.948a5.154 5.154 0 0 0 -1.8-3.786l1.507-1.507-1.414-1.414-1.766 1.765a9.891 9.891 0 0 0 -4.527-1.058c-4.411 0-8 2.691-8 6 0 3.054 3.06 5.577 7 5.948zm1-9.948a8.179 8.179 0 0 1 3.019.567l-3.019 3.019-1.293-1.293-1.414 1.414 2 2a1 1 0 0 0 1.414 0l4.079-4.079a3.218 3.218 0 0 1 1.214 2.372c0 2.168-2.748 4-6 4s-6-1.832-6-4 2.748-4 6-4z"></path><path d="m34 7h8v2h-8z"></path><path d="m34 11h16v2h-16z"></path><path d="m34 15h16v2h-16z"></path><path d="m34 27h8v2h-8z"></path><path d="m34 31h16v2h-16z"></path><path d="m34 35h16v2h-16z"></path><path d="m34 47h8v2h-8z"></path><path d="m34 51h16v2h-16z"></path><path d="m34 55h16v2h-16z"></path><path d="m53 1h-42a1 1 0 0 0 -1 1v52a1 1 0 0 0 .293.707l8 8a1 1 0 0 0 .707.293h34a1 1 0 0 0 1-1v-60a1 1 0 0 0 -1-1zm-37 51c0-2.168 2.748-4 6-4a8.179 8.179 0 0 1 3.019.567l-3.019 3.019-1.293-1.293-1.414 1.414 2 2a1 1 0 0 0 1.414 0l4.079-4.079a3.218 3.218 0 0 1 1.214 2.372c0 2.168-2.748 4-6 4a8.437 8.437 0 0 1 -2-.261v-1.739a1 1 0 0 0 -1-1h-2.779a2.69 2.69 0 0 1 -.221-1zm2 3v4.586l-4.586-4.586zm34 6h-32v-3.194a10.637 10.637 0 0 0 2 .194c4.411 0 8-2.691 8-6a5.154 5.154 0 0 0 -1.8-3.786l1.507-1.507-1.414-1.414-1.766 1.765a9.891 9.891 0 0 0 -4.527-1.058c-4.411 0-8 2.691-8 6a4.658 4.658 0 0 0 .12 1h-2.12v-50h40z"></path></svg>